<?xml version="1.0" encoding="utf-8"?><!-- Uploaded to: SVG Repo, www.svgrepo.com, Generator: SVG Repo Mixer Tools -->
<svg width="800px" height="800px" viewBox="0 0 24 24" fill="none" xmlns="http://www.w3.org/2000/svg">
<g id="style=bulk">
<g id="call">
<path id="vector (Stroke)" fill-rule="evenodd" clip-rule="evenodd" d="M2.98958 2.39989C3.74153 1.66198 4.62059 1.25 5.59 1.25C5.97318 1.25 6.36311 1.33138 6.71941 1.5014C7.08755 1.67229 7.42309 1.93393 7.68396 2.30922L10.0003 5.574C10.2053 5.85906 10.3657 6.13796 10.4818 6.42035C10.5997 6.6971 10.68 7.00644 10.68 7.32C10.68 7.70687 10.5673 8.07663 10.367 8.40939C10.1968 8.70784 9.96427 8.99567 9.69563 9.26502L9.00688 9.98096C9.01385 9.99743 9.02321 10.0197 9.03333 10.0455C9.183 10.3079 9.44802 10.6772 9.84989 11.1524C10.29 11.6609 10.7568 12.1761 11.2604 12.6897C11.7923 13.2116 12.2961 13.6858 12.8048 14.1178C13.2858 14.5247 13.6606 14.7841 13.933 14.9322C13.955 14.9417 13.9753 14.9509 13.9918 14.9584L14.6815 14.2778C14.955 14.0046 15.2482 13.7638 15.5612 13.5966C15.8882 13.4019 16.2447 13.29 16.64 13.29C16.9399 13.29 17.2362 13.354 17.534 13.4758C17.8169 13.5916 18.0939 13.7509 18.3717 13.9398L18.378 13.9441L21.6909 16.2961C22.0455 16.5425 22.3234 16.8545 22.4965 17.2479L22.5016 17.2596L22.5064 17.2715C22.6338 17.59 22.72 17.9351 22.72 18.33C22.72 18.8025 22.6147 19.2817 22.3982 19.7403C22.2879 19.9738 22.1587 20.2021 22.0066 20.424C21.9538 20.5011 21.8983 20.5773 21.84 20.6525C21.7634 20.7514 21.682 20.8484 21.5957 20.9436C21.3815 21.1797 21.1554 21.3943 20.9162 21.5856C20.537 21.8891 20.1283 22.1318 19.6865 22.3131C18.9922 22.6021 18.2445 22.75 17.45 22.75C16.3114 22.75 15.1213 22.4821 13.896 21.96C12.6885 21.4455 11.4895 20.7561 10.3086 19.8963L10.3076 19.8956C9.12671 19.0331 8.00824 18.0786 6.94224 17.0229L6.93709 17.0178C5.88147 15.9519 4.92677 14.8332 4.07368 13.6614L4.07114 13.658C3.22474 12.4813 2.5351 11.293 2.0297 10.1032L2.02877 10.101C1.51719 8.88605 1.25 7.69701 1.25 6.54C1.25 5.77184 1.3856 5.02732 1.66286 4.33342C1.94487 3.61753 2.38783 2.96904 2.98958 2.39989Z" fill="#000000"/>
<path id="vector" d="M4.68 13.22C5.51 14.36 6.44 15.45 7.47 16.49L10.76 13.22C10.24 12.69 9.73 12.16 9.28 11.64C8.84 11.12 8.53 10.69 8.35 10.36C8.33 10.3 8.3 10.24 8.27 10.16C8.25 10.08 8.24 10.01 8.24 9.93C8.24 9.77 8.29 9.64 8.4 9.53L9.16 8.74C9.4 8.5 9.59 8.26 9.72 8.03C9.86 7.8 9.93 7.56 9.93 7.32C9.93 7.13 9.88 6.92 9.79 6.71C9.7 6.49 9.57 6.26 9.39 6.01L7.07 2.74C6.89 2.48 6.66 2.3 6.4 2.18C6.15 2.06 5.87 2 5.59 2C4.85 2 4.15 2.31 3.51 2.94C2.98 3.44 2.6 4 2.36 4.61C2.12 5.21 2 5.86 2 6.54C2 7.58 2.24 8.67 2.72 9.81C3.2 10.94 3.86 12.08 4.68 13.22Z" fill="#BFBFBF"/>
<path id="vector (Stroke)_2" fill-rule="evenodd" clip-rule="evenodd" d="M2.98958 2.39989C3.74153 1.66198 4.62059 1.25 5.59 1.25C5.97318 1.25 6.36311 1.33138 6.71942 1.5014C7.08756 1.6723 7.4231 1.93394 7.68397 2.30924L10.0002 5.57397C10.2053 5.85902 10.3657 6.13792 10.4818 6.4203C10.5997 6.69706 10.68 7.00642 10.68 7.32C10.68 7.70686 10.5673 8.07662 10.3671 8.40937C10.1968 8.70783 9.96427 8.99567 9.69563 9.26502L9.00688 9.98096C9.01385 9.99743 9.02321 10.0197 9.03333 10.0455C9.18299 10.3079 9.448 10.6772 9.84985 11.1524C10.2828 11.6524 10.7778 12.1673 11.2954 12.6947L11.8172 13.2266L7.46582 17.5516L6.93711 17.0178C5.8815 15.9519 4.92677 14.8332 4.07368 13.6614L4.07114 13.658C3.22474 12.4813 2.5351 11.293 2.0297 10.1032L2.02877 10.101C1.51719 8.88605 1.25 7.69701 1.25 6.54C1.25 5.77184 1.3856 5.02732 1.66286 4.33342C1.94486 3.61753 2.38783 2.96904 2.98958 2.39989Z" fill="#BFBFBF"/>
</g>
</g>
</svg>