<?xml version="1.0" encoding="utf-8"?>
<!-- Designed by Vexels.com - 2016 All Rights Reserved - https://vexels.com/terms-and-conditions/  -->

<svg version="1.1" id="Layer_1" xmlns="http://www.w3.org/2000/svg" xmlns:xlink="http://www.w3.org/1999/xlink" x="0px" y="0px"
	 width="1200px" height="1200px" viewBox="0 0 1200 1200" enable-background="new 0 0 1200 1200" xml:space="preserve">
<g>
	<path fill="#575756" d="M228.756,114.707c0,0-188.292,147.248-88.204,412.095c100.005,264.843,215.206,458.551,432.871,576.211
		c217.753,117.769,355.872-22.963,355.872-22.963L693.805,762.145c0,0-100.092,176.6-253.068-5.855
		c-111.888-141.306-123.689-235.43,5.86-323.699C452.959,305.928,281.475,129.82,228.756,114.707z"/>
	<path fill="#575756" d="M590.232,283.604l7.811,104.46c0,0,89.986-8.276,139.228,61.886c25.04,35.616,36.759,66.515,15.448,162.465
		c19.355,3.799,100.514,46.351,100.514,46.351s50.342-181.798-38.623-286.154C717.063,258.073,590.232,283.604,590.232,283.604z"/>
	<path fill="#575756" d="M609.592,179.162L611.456,50c0,0,307.909,15.704,419.714,245.171
		c115.453,236.999,21.646,466.974,21.646,466.974l-111.801-58.743c0,0,64.176-236.26-47.116-382.617
		C782.092,173.624,609.592,179.162,609.592,179.162z"/>
</g>
</svg>
